<?xml version="1.0" encoding="UTF-8"?>
<svg xmlns="http://www.w3.org/2000/svg" xmlns:xlink="http://www.w3.org/1999/xlink" width="50pt" height="50pt" viewBox="0 0 50 50" version="1.1">
<g id="surface1">
<path style=" stroke:none;fill-rule:nonzero;fill:#05C7CC;fill-opacity:1;" d="M 25 5 C 20.980469 5 17.894531 6.21875 17.894531 6.21875 L 17.234375 6.484375 L 17.90625 7.707031 C 16.277344 8.210938 15.265625 8.914063 15.265625 8.914063 L 15 9.101563 L 15 9.429688 C 15 10.941406 16.261719 12.191406 17.398438 13.195313 C 17.933594 13.660156 18.453125 14.054688 18.867188 14.355469 C 15.621094 16.453125 12.335938 19.789063 9.757813 23.441406 C 6.96875 27.402344 5 31.707031 5 35.289063 C 5 39.523438 7.074219 42.269531 10.582031 43.753906 C 14.09375 45.238281 18.992188 45.625 25 45.625 C 31.007813 45.625 35.90625 45.238281 39.417969 43.753906 C 42.925781 42.269531 45 39.523438 45 35.289063 C 45 31.707031 43.03125 27.402344 40.242188 23.441406 C 37.667969 19.789063 34.378906 16.453125 31.132813 14.355469 C 31.546875 14.054688 32.066406 13.660156 32.601563 13.195313 C 33.738281 12.191406 35 10.941406 35 9.429688 L 35 9.101563 L 34.734375 8.914063 C 34.734375 8.914063 33.722656 8.210938 32.09375 7.707031 L 32.765625 6.484375 L 32.105469 6.21875 C 32.105469 6.21875 29.03125 5 25 5 Z M 25 6.25 C 28.097656 6.25 30.160156 6.902344 30.957031 7.175781 L 27.363281 13.75 L 22.636719 13.75 L 19.042969 7.179688 C 19.839844 6.902344 21.910156 6.25 25 6.25 Z M 18.523438 8.835938 L 21.210938 13.75 L 20.207031 13.75 C 20.085938 13.675781 19.210938 13.121094 18.226563 12.257813 C 17.289063 11.429688 16.550781 10.417969 16.378906 9.714844 C 16.738281 9.5 17.417969 9.148438 18.523438 8.835938 Z M 31.476563 8.835938 C 32.582031 9.148438 33.261719 9.5 33.621094 9.714844 C 33.449219 10.417969 32.710938 11.429688 31.773438 12.257813 C 30.789063 13.121094 29.914063 13.675781 29.796875 13.75 L 28.789063 13.75 Z M 20.898438 15 L 29.808594 15 C 33.050781 16.921875 36.550781 20.375 39.21875 24.160156 C 41.921875 27.996094 43.75 32.179688 43.75 35.289063 C 43.75 39.140625 42.121094 41.253906 38.929688 42.601563 C 35.738281 43.949219 30.953125 44.375 25 44.375 C 19.046875 44.375 14.261719 43.949219 11.070313 42.601563 C 7.878906 41.253906 6.25 39.140625 6.25 35.289063 C 6.25 32.179688 8.078125 27.996094 10.78125 24.160156 C 12.195313 22.152344 13.851563 20.242188 15.574219 18.601563 C 14.761719 19.90625 14.015625 21.507813 13.484375 23.476563 C 13.414063 23.695313 13.472656 23.933594 13.628906 24.097656 C 13.792969 24.261719 14.027344 24.328125 14.25 24.265625 C 14.46875 24.203125 14.640625 24.023438 14.691406 23.800781 C 15.554688 20.585938 17.023438 18.476563 18.316406 17.085938 C 17.484375 19.085938 16.6875 22.085938 16.6875 26.488281 C 16.683594 26.714844 16.800781 26.925781 16.996094 27.035156 C 17.191406 27.152344 17.429688 27.152344 17.625 27.035156 C 17.820313 26.925781 17.9375 26.714844 17.9375 26.488281 C 17.9375 22.089844 18.75 19.148438 19.539063 17.324219 C 20.117188 15.996094 20.648438 15.292969 20.898438 15 Z M 21.582031 22.390625 L 21.582031 32.886719 L 20.007813 32.886719 L 20.007813 34.558594 L 21.582031 34.558594 L 21.582031 36.480469 L 24.101563 36.480469 L 24.101563 34.558594 L 27.542969 34.558594 L 27.542969 32.886719 L 24.105469 32.886719 L 24.105469 30.535156 L 29.523438 30.535156 L 29.523438 28.433594 L 24.105469 28.433594 L 24.105469 24.566406 L 30.082031 24.566406 L 30.082031 22.390625 Z M 9.375 38.125 C 9.03125 38.125 8.75 38.40625 8.75 38.75 C 8.75 39.09375 9.03125 39.375 9.375 39.375 C 9.71875 39.375 10 39.09375 10 38.75 C 10 38.40625 9.71875 38.125 9.375 38.125 Z M 40.625 38.125 C 40.28125 38.125 40 38.40625 40 38.75 C 40 39.09375 40.28125 39.375 40.625 39.375 C 40.96875 39.375 41.25 39.09375 41.25 38.75 C 41.25 38.40625 40.96875 38.125 40.625 38.125 Z M 11.25 40 C 10.90625 40 10.625 40.28125 10.625 40.625 C 10.625 40.96875 10.90625 41.25 11.25 41.25 C 11.59375 41.25 11.875 40.96875 11.875 40.625 C 11.875 40.28125 11.59375 40 11.25 40 Z M 38.75 40 C 38.40625 40 38.125 40.28125 38.125 40.625 C 38.125 40.96875 38.40625 41.25 38.75 41.25 C 39.09375 41.25 39.375 40.96875 39.375 40.625 C 39.375 40.28125 39.09375 40 38.75 40 Z M 13.75 40.625 C 13.40625 40.625 13.125 40.90625 13.125 41.25 C 13.125 41.59375 13.40625 41.875 13.75 41.875 C 14.09375 41.875 14.375 41.59375 14.375 41.25 C 14.375 40.90625 14.09375 40.625 13.75 40.625 Z M 36.25 40.625 C 35.90625 40.625 35.625 40.90625 35.625 41.25 C 35.625 41.59375 35.90625 41.875 36.25 41.875 C 36.59375 41.875 36.875 41.59375 36.875 41.25 C 36.875 40.90625 36.59375 40.625 36.25 40.625 Z M 16.25 41.25 C 15.90625 41.25 15.625 41.53125 15.625 41.875 C 15.625 42.21875 15.90625 42.5 16.25 42.5 C 16.59375 42.5 16.875 42.21875 16.875 41.875 C 16.875 41.53125 16.59375 41.25 16.25 41.25 Z M 18.75 41.25 C 18.40625 41.25 18.125 41.53125 18.125 41.875 C 18.125 42.21875 18.40625 42.5 18.75 42.5 C 19.09375 42.5 19.375 42.21875 19.375 41.875 C 19.375 41.53125 19.09375 41.25 18.75 41.25 Z M 21.25 41.25 C 20.90625 41.25 20.625 41.53125 20.625 41.875 C 20.625 42.21875 20.90625 42.5 21.25 42.5 C 21.59375 42.5 21.875 42.21875 21.875 41.875 C 21.875 41.53125 21.59375 41.25 21.25 41.25 Z M 23.75 41.25 C 23.40625 41.25 23.125 41.53125 23.125 41.875 C 23.125 42.21875 23.40625 42.5 23.75 42.5 C 24.09375 42.5 24.375 42.21875 24.375 41.875 C 24.375 41.53125 24.09375 41.25 23.75 41.25 Z M 26.25 41.25 C 25.90625 41.25 25.625 41.53125 25.625 41.875 C 25.625 42.21875 25.90625 42.5 26.25 42.5 C 26.59375 42.5 26.875 42.21875 26.875 41.875 C 26.875 41.53125 26.59375 41.25 26.25 41.25 Z M 28.75 41.25 C 28.40625 41.25 28.125 41.53125 28.125 41.875 C 28.125 42.21875 28.40625 42.5 28.75 42.5 C 29.09375 42.5 29.375 42.21875 29.375 41.875 C 29.375 41.53125 29.09375 41.25 28.75 41.25 Z M 31.25 41.25 C 30.90625 41.25 30.625 41.53125 30.625 41.875 C 30.625 42.21875 30.90625 42.5 31.25 42.5 C 31.59375 42.5 31.875 42.21875 31.875 41.875 C 31.875 41.53125 31.59375 41.25 31.25 41.25 Z M 33.75 41.25 C 33.40625 41.25 33.125 41.53125 33.125 41.875 C 33.125 42.21875 33.40625 42.5 33.75 42.5 C 34.09375 42.5 34.375 42.21875 34.375 41.875 C 34.375 41.53125 34.09375 41.25 33.75 41.25 Z "/>
</g>
</svg>
