<?xml version="1.0" encoding="UTF-8"?>
<svg xmlns="http://www.w3.org/2000/svg" xmlns:xlink="http://www.w3.org/1999/xlink" width="50pt" height="50pt" viewBox="0 0 50 50" version="1.1">
<g id="surface1">
<path style=" stroke:none;fill-rule:nonzero;fill:#05C7CC;fill-opacity:1;" d="M 25 4.375 C 13.617188 4.375 4.375 13.617188 4.375 25 C 4.375 36.382813 13.617188 45.625 25 45.625 C 36.382813 45.625 45.625 36.382813 45.625 25 C 45.625 13.617188 36.382813 4.375 25 4.375 Z M 25 5.625 C 35.707031 5.625 44.375 14.292969 44.375 25 C 44.375 35.707031 35.707031 44.375 25 44.375 C 14.292969 44.375 5.625 35.707031 5.625 25 C 5.625 14.292969 14.292969 5.625 25 5.625 Z M 25 7.5 C 24.65625 7.5 24.375 7.78125 24.375 8.125 C 24.375 8.46875 24.65625 8.75 25 8.75 C 25.34375 8.75 25.625 8.46875 25.625 8.125 C 25.625 7.78125 25.34375 7.5 25 7.5 Z M 28.308594 7.820313 C 28.003906 7.816406 27.738281 8.027344 27.679688 8.328125 C 27.613281 8.664063 27.832031 8.992188 28.171875 9.0625 C 28.507813 9.128906 28.835938 8.910156 28.90625 8.570313 C 28.972656 8.230469 28.753906 7.902344 28.414063 7.835938 C 28.378906 7.828125 28.34375 7.824219 28.308594 7.820313 Z M 21.710938 7.824219 C 21.671875 7.824219 21.628906 7.828125 21.585938 7.835938 C 21.246094 7.902344 21.027344 8.230469 21.097656 8.570313 C 21.128906 8.734375 21.222656 8.875 21.363281 8.96875 C 21.5 9.058594 21.667969 9.09375 21.832031 9.0625 C 22.171875 8.992188 22.390625 8.667969 22.320313 8.328125 C 22.261719 8.039063 22.007813 7.828125 21.710938 7.824219 Z M 18.546875 8.785156 C 18.464844 8.785156 18.382813 8.796875 18.304688 8.832031 C 17.984375 8.964844 17.832031 9.328125 17.964844 9.648438 C 18.097656 9.96875 18.460938 10.121094 18.78125 9.988281 C 19.101563 9.851563 19.253906 9.488281 19.121094 9.167969 C 19.023438 8.9375 18.796875 8.785156 18.546875 8.785156 Z M 31.472656 8.785156 C 31.214844 8.777344 30.980469 8.929688 30.878906 9.167969 C 30.746094 9.488281 30.898438 9.851563 31.21875 9.988281 C 31.539063 10.121094 31.902344 9.96875 32.035156 9.648438 C 32.167969 9.328125 32.015625 8.964844 31.695313 8.832031 C 31.625 8.800781 31.546875 8.785156 31.472656 8.785156 Z M 15.632813 10.34375 C 15.503906 10.34375 15.382813 10.378906 15.277344 10.449219 C 14.992188 10.640625 14.914063 11.027344 15.105469 11.316406 C 15.296875 11.601563 15.683594 11.679688 15.972656 11.488281 C 16.257813 11.296875 16.335938 10.90625 16.144531 10.621094 C 16.03125 10.449219 15.835938 10.34375 15.632813 10.34375 Z M 34.382813 10.34375 C 34.171875 10.339844 33.972656 10.445313 33.855469 10.621094 C 33.664063 10.90625 33.742188 11.296875 34.027344 11.488281 C 34.3125 11.679688 34.703125 11.601563 34.894531 11.316406 C 34.984375 11.179688 35.019531 11.007813 34.988281 10.847656 C 34.957031 10.683594 34.859375 10.539063 34.722656 10.449219 C 34.621094 10.382813 34.507813 10.34375 34.382813 10.34375 Z M 21.875 11.875 L 21.875 16.101563 L 19.039063 21.875 L 15.625 21.875 L 15.625 23.125 L 19.816406 23.125 L 23.125 16.398438 L 23.125 13.125 L 23.289063 13.125 C 23.785156 13.125 24.371094 13.519531 24.84375 14.238281 C 25.316406 14.953125 25.625 15.941406 25.625 16.824219 C 25.625 16.890625 25.589844 17.277344 25.53125 17.714844 C 25.472656 18.15625 25.398438 18.683594 25.320313 19.191406 C 25.164063 20.210938 25.007813 21.148438 25.007813 21.148438 L 24.886719 21.875 L 34.0625 21.875 C 34.585938 21.875 35 22.289063 35 22.8125 C 35 23.335938 34.585938 23.75 34.0625 23.75 L 33.4375 23.75 L 33.332031 24.992188 C 33.332031 24.992188 33.625 25.046875 33.902344 25.207031 C 34.183594 25.371094 34.375 25.539063 34.375 25.9375 C 34.375 26.476563 33.96875 26.875 33.4375 26.875 L 32.8125 26.875 L 32.710938 28.117188 C 32.710938 28.117188 33 28.167969 33.277344 28.332031 C 33.558594 28.496094 33.75 28.664063 33.75 29.0625 C 33.75 29.585938 33.335938 30 32.8125 30 L 32.1875 30 L 32.128906 31.246094 C 32.128906 31.246094 32.40625 31.28125 32.667969 31.425781 C 32.933594 31.570313 33.125 31.710938 33.125 32.1875 C 33.125 32.710938 32.710938 33.125 32.1875 33.125 L 21.25 33.125 C 20.703125 33.125 20.25 32.777344 20.078125 32.292969 L 19.929688 31.875 L 15.625 31.875 L 15.625 33.125 L 19.214844 33.125 C 19.652344 33.835938 20.355469 34.375 21.25 34.375 L 32.1875 34.375 C 33.390625 34.375 34.375 33.390625 34.375 32.1875 C 34.375 31.648438 34.167969 31.242188 33.90625 30.910156 C 34.546875 30.53125 35 29.859375 35 29.0625 C 35 28.527344 34.777344 28.128906 34.503906 27.804688 C 35.160156 27.425781 35.625 26.746094 35.625 25.9375 C 35.625 25.402344 35.402344 25.003906 35.128906 24.679688 C 35.785156 24.300781 36.25 23.617188 36.25 22.8125 C 36.25 21.613281 35.265625 20.625 34.0625 20.625 L 26.359375 20.625 C 26.417969 20.257813 26.457031 20.03125 26.554688 19.382813 C 26.632813 18.867188 26.714844 18.332031 26.773438 17.878906 C 26.832031 17.425781 26.875 17.085938 26.875 16.824219 C 26.875 15.660156 26.5 14.484375 25.890625 13.550781 C 25.277344 12.617188 24.382813 11.875 23.289063 11.875 Z M 13.078125 12.441406 C 12.90625 12.441406 12.742188 12.507813 12.625 12.625 C 12.382813 12.867188 12.382813 13.265625 12.625 13.507813 C 12.867188 13.753906 13.265625 13.753906 13.507813 13.507813 C 13.753906 13.265625 13.753906 12.867188 13.507813 12.625 C 13.394531 12.507813 13.238281 12.445313 13.078125 12.441406 Z M 36.941406 12.441406 C 36.773438 12.441406 36.609375 12.507813 36.492188 12.625 C 36.246094 12.867188 36.246094 13.265625 36.492188 13.507813 C 36.734375 13.753906 37.132813 13.753906 37.375 13.507813 C 37.617188 13.265625 37.617188 12.867188 37.375 12.625 C 37.257813 12.507813 37.105469 12.445313 36.941406 12.441406 Z M 39.039063 15 C 38.910156 14.996094 38.789063 15.035156 38.683594 15.105469 C 38.398438 15.296875 38.320313 15.683594 38.511719 15.96875 C 38.703125 16.257813 39.09375 16.335938 39.378906 16.140625 C 39.664063 15.949219 39.742188 15.5625 39.550781 15.277344 C 39.4375 15.105469 39.242188 15 39.039063 15 Z M 10.980469 15 C 10.765625 14.996094 10.566406 15.101563 10.449219 15.277344 C 10.257813 15.5625 10.335938 15.953125 10.621094 16.140625 C 10.910156 16.335938 11.296875 16.257813 11.488281 15.972656 C 11.679688 15.683594 11.605469 15.296875 11.316406 15.105469 C 11.214844 15.039063 11.101563 15.003906 10.980469 15 Z M 40.597656 17.917969 C 40.511719 17.914063 40.429688 17.933594 40.351563 17.964844 C 40.03125 18.09375 39.878906 18.460938 40.011719 18.78125 C 40.148438 19.097656 40.511719 19.25 40.828125 19.117188 C 41.148438 18.988281 41.300781 18.621094 41.167969 18.300781 C 41.070313 18.070313 40.847656 17.917969 40.597656 17.917969 Z M 9.421875 17.917969 C 9.164063 17.914063 8.929688 18.0625 8.832031 18.304688 C 8.699219 18.625 8.851563 18.988281 9.167969 19.121094 C 9.488281 19.253906 9.855469 19.101563 9.988281 18.78125 C 10.121094 18.460938 9.96875 18.097656 9.648438 17.964844 C 9.578125 17.933594 9.5 17.921875 9.421875 17.917969 Z M 41.554688 21.085938 C 41.511719 21.082031 41.46875 21.085938 41.429688 21.09375 C 41.089844 21.164063 40.871094 21.492188 40.9375 21.828125 C 41.003906 22.167969 41.335938 22.386719 41.671875 22.320313 C 42.011719 22.253906 42.230469 21.925781 42.164063 21.585938 C 42.105469 21.292969 41.851563 21.085938 41.554688 21.085938 Z M 8.464844 21.085938 C 8.160156 21.078125 7.898438 21.285156 7.835938 21.585938 C 7.804688 21.75 7.835938 21.917969 7.929688 22.054688 C 8.023438 22.195313 8.167969 22.289063 8.328125 22.320313 C 8.492188 22.355469 8.660156 22.320313 8.796875 22.230469 C 8.933594 22.136719 9.03125 21.992188 9.0625 21.828125 C 9.128906 21.492188 8.910156 21.164063 8.574219 21.09375 C 8.539063 21.089844 8.503906 21.085938 8.464844 21.085938 Z M 8.125 24.375 C 7.78125 24.375 7.5 24.65625 7.5 25 C 7.5 25.34375 7.78125 25.625 8.125 25.625 C 8.46875 25.625 8.75 25.34375 8.75 25 C 8.75 24.65625 8.46875 24.375 8.125 24.375 Z M 41.875 24.375 C 41.53125 24.375 41.25 24.65625 41.25 25 C 41.25 25.34375 41.53125 25.625 41.875 25.625 C 42.21875 25.625 42.5 25.34375 42.5 25 C 42.5 24.65625 42.21875 24.375 41.875 24.375 Z M 8.453125 27.667969 C 8.410156 27.667969 8.367188 27.671875 8.328125 27.679688 C 7.988281 27.746094 7.769531 28.078125 7.835938 28.414063 C 7.90625 28.753906 8.230469 28.972656 8.570313 28.90625 C 8.910156 28.835938 9.128906 28.507813 9.0625 28.171875 C 9.003906 27.878906 8.75 27.667969 8.453125 27.667969 Z M 41.566406 27.667969 C 41.261719 27.660156 41 27.871094 40.9375 28.171875 C 40.871094 28.507813 41.089844 28.835938 41.429688 28.90625 C 41.765625 28.972656 42.097656 28.753906 42.164063 28.414063 C 42.230469 28.078125 42.011719 27.746094 41.671875 27.679688 C 41.636719 27.671875 41.605469 27.667969 41.566406 27.667969 Z M 40.605469 30.832031 C 40.347656 30.824219 40.113281 30.980469 40.011719 31.21875 C 39.878906 31.535156 40.03125 31.902344 40.351563 32.035156 C 40.671875 32.164063 41.035156 32.015625 41.167969 31.695313 C 41.300781 31.378906 41.148438 31.011719 40.828125 30.878906 C 40.757813 30.851563 40.679688 30.832031 40.605469 30.832031 Z M 9.414063 30.832031 C 9.332031 30.832031 9.246094 30.847656 9.167969 30.878906 C 9.019531 30.941406 8.894531 31.066406 8.832031 31.21875 C 8.769531 31.371094 8.769531 31.542969 8.832031 31.695313 C 8.964844 32.015625 9.328125 32.167969 9.648438 32.035156 C 9.800781 31.972656 9.925781 31.851563 9.988281 31.695313 C 10.050781 31.542969 10.050781 31.371094 9.988281 31.21875 C 9.890625 30.988281 9.664063 30.835938 9.414063 30.832031 Z M 39.042969 33.75 C 38.832031 33.746094 38.628906 33.851563 38.511719 34.027344 C 38.320313 34.3125 38.398438 34.699219 38.683594 34.894531 C 38.820313 34.984375 38.992188 35.019531 39.152344 34.984375 C 39.316406 34.953125 39.460938 34.859375 39.550781 34.71875 C 39.742188 34.433594 39.664063 34.046875 39.378906 33.855469 C 39.28125 33.785156 39.164063 33.75 39.042969 33.75 Z M 10.976563 33.75 C 10.851563 33.746094 10.726563 33.785156 10.621094 33.855469 C 10.335938 34.046875 10.257813 34.433594 10.449219 34.722656 C 10.640625 35.007813 11.03125 35.085938 11.320313 34.894531 C 11.605469 34.703125 11.683594 34.3125 11.488281 34.027344 C 11.375 33.855469 11.179688 33.753906 10.976563 33.75 Z M 13.078125 36.308594 C 12.90625 36.304688 12.742188 36.371094 12.625 36.492188 C 12.382813 36.734375 12.382813 37.132813 12.625 37.375 C 12.867188 37.617188 13.265625 37.617188 13.507813 37.375 C 13.753906 37.132813 13.753906 36.734375 13.507813 36.492188 C 13.394531 36.375 13.238281 36.308594 13.078125 36.308594 Z M 36.941406 36.308594 C 36.773438 36.304688 36.609375 36.371094 36.492188 36.492188 C 36.246094 36.734375 36.246094 37.132813 36.492188 37.375 C 36.734375 37.617188 37.132813 37.617188 37.375 37.375 C 37.617188 37.132813 37.617188 36.734375 37.375 36.492188 C 37.257813 36.375 37.105469 36.308594 36.941406 36.308594 Z M 15.636719 38.40625 C 15.425781 38.402344 15.226563 38.507813 15.109375 38.679688 C 14.914063 38.96875 14.992188 39.359375 15.28125 39.550781 C 15.566406 39.742188 15.953125 39.664063 16.144531 39.378906 C 16.335938 39.089844 16.257813 38.703125 15.972656 38.511719 C 15.875 38.445313 15.757813 38.40625 15.636719 38.40625 Z M 34.382813 38.40625 C 34.253906 38.402344 34.132813 38.441406 34.027344 38.507813 C 33.890625 38.601563 33.792969 38.746094 33.761719 38.910156 C 33.730469 39.070313 33.765625 39.242188 33.859375 39.378906 C 34.046875 39.664063 34.4375 39.742188 34.722656 39.550781 C 35.007813 39.359375 35.085938 38.96875 34.894531 38.679688 C 34.78125 38.511719 34.589844 38.40625 34.382813 38.40625 Z M 18.558594 39.964844 C 18.296875 39.957031 18.0625 40.113281 17.964844 40.351563 C 17.835938 40.667969 17.984375 41.035156 18.304688 41.167969 C 18.625 41.296875 18.988281 41.148438 19.121094 40.828125 C 19.253906 40.511719 19.101563 40.144531 18.78125 40.011719 C 18.710938 39.984375 18.636719 39.964844 18.558594 39.964844 Z M 31.460938 39.964844 C 31.378906 39.964844 31.296875 39.980469 31.21875 40.011719 C 31.066406 40.074219 30.945313 40.199219 30.882813 40.347656 C 30.816406 40.503906 30.816406 40.675781 30.878906 40.828125 C 31.011719 41.148438 31.378906 41.296875 31.695313 41.167969 C 31.851563 41.105469 31.972656 40.980469 32.035156 40.828125 C 32.101563 40.675781 32.101563 40.503906 32.035156 40.351563 C 31.941406 40.117188 31.714844 39.964844 31.460938 39.964844 Z M 21.726563 40.925781 C 21.421875 40.917969 21.15625 41.128906 21.097656 41.429688 C 21.027344 41.765625 21.246094 42.09375 21.585938 42.164063 C 21.925781 42.230469 22.253906 42.011719 22.320313 41.671875 C 22.390625 41.332031 22.171875 41.003906 21.832031 40.9375 C 21.796875 40.929688 21.761719 40.925781 21.726563 40.925781 Z M 28.292969 40.929688 C 28.253906 40.925781 28.210938 40.929688 28.171875 40.9375 C 27.832031 41.003906 27.613281 41.332031 27.679688 41.671875 C 27.710938 41.835938 27.808594 41.976563 27.945313 42.070313 C 28.082031 42.164063 28.253906 42.199219 28.414063 42.164063 C 28.578125 42.132813 28.71875 42.035156 28.8125 41.898438 C 28.902344 41.761719 28.9375 41.59375 28.90625 41.429688 C 28.847656 41.136719 28.589844 40.929688 28.292969 40.929688 Z M 25 41.25 C 24.65625 41.25 24.375 41.53125 24.375 41.875 C 24.375 42.21875 24.65625 42.5 25 42.5 C 25.34375 42.5 25.625 42.21875 25.625 41.875 C 25.625 41.53125 25.34375 41.25 25 41.25 Z "/>
</g>
</svg>
