<?xml version="1.0" encoding="UTF-8"?>
<svg xmlns="http://www.w3.org/2000/svg" xmlns:xlink="http://www.w3.org/1999/xlink" width="50pt" height="50pt" viewBox="0 0 50 50" version="1.1">
<g id="surface1">
<path style=" stroke:none;fill-rule:nonzero;fill:#05C7CC;fill-opacity:1;" d="M 13.75 5.625 C 11.339844 5.625 9.375 7.589844 9.375 10 C 9.375 12.410156 11.339844 14.375 13.75 14.375 C 16.160156 14.375 18.125 12.410156 18.125 10 C 18.125 7.589844 16.160156 5.625 13.75 5.625 Z M 13.75 6.875 C 15.484375 6.875 16.875 8.265625 16.875 10 C 16.875 11.734375 15.484375 13.125 13.75 13.125 C 12.015625 13.125 10.625 11.734375 10.625 10 C 10.625 8.265625 12.015625 6.875 13.75 6.875 Z M 28.75 7.5 L 28.75 9.375 L 19.375 9.375 L 19.375 10.625 L 43.125 10.625 L 43.125 31.875 L 20 31.875 L 20 33.125 L 28.75 33.125 L 28.75 34.085938 L 24.003906 39.402344 C 23.921875 39.382813 23.835938 39.375 23.75 39.375 C 23.058594 39.375 22.5 39.933594 22.5 40.625 C 22.5 41.316406 23.058594 41.875 23.75 41.875 C 24.441406 41.875 25 41.316406 25 40.625 C 25 40.492188 24.976563 40.359375 24.9375 40.234375 L 28.75 35.964844 L 28.75 37.5 L 30 37.5 L 30 36.046875 L 33.808594 40.246094 C 33.769531 40.367188 33.75 40.496094 33.75 40.625 C 33.75 41.316406 34.308594 41.875 35 41.875 C 35.691406 41.875 36.25 41.316406 36.25 40.625 C 36.25 39.933594 35.691406 39.375 35 39.375 C 34.914063 39.375 34.820313 39.382813 34.738281 39.40625 L 30 34.183594 L 30 33.125 L 44.375 33.125 L 44.375 9.375 L 30 9.375 L 30 7.5 Z M 40.625 11.875 C 40.28125 11.875 40 12.15625 40 12.5 C 40 12.84375 40.28125 13.125 40.625 13.125 C 40.96875 13.125 41.25 12.84375 41.25 12.5 C 41.25 12.15625 40.96875 11.875 40.625 11.875 Z M 40.625 14.375 C 40.28125 14.375 40 14.65625 40 15 C 40 15.34375 40.28125 15.625 40.625 15.625 C 40.96875 15.625 41.25 15.34375 41.25 15 C 41.25 14.65625 40.96875 14.375 40.625 14.375 Z M 9.375 15.625 C 7.3125 15.625 5.625 17.3125 5.625 19.375 L 5.625 29.6875 C 5.625 30.890625 6.609375 31.875 7.8125 31.875 C 8.152344 31.875 8.460938 31.78125 8.75 31.640625 L 8.75 42.1875 C 8.75 43.390625 9.734375 44.375 10.9375 44.375 C 12.140625 44.375 13.125 43.390625 13.125 42.1875 L 13.125 33.125 L 14.375 33.125 L 14.375 42.1875 C 14.375 43.390625 15.359375 44.375 16.5625 44.375 C 17.765625 44.375 18.75 43.390625 18.75 42.1875 L 18.75 20 L 29.0625 20 C 30.265625 20 31.25 19.015625 31.25 17.8125 C 31.25 16.609375 30.265625 15.625 29.0625 15.625 L 15.269531 15.625 L 13.75 18.160156 L 12.230469 15.625 Z M 9.375 16.875 L 11.519531 16.875 L 13.75 20.589844 L 15.980469 16.875 L 29.0625 16.875 C 29.585938 16.875 30 17.289063 30 17.8125 C 30 18.335938 29.585938 18.75 29.0625 18.75 L 17.5 18.75 L 17.5 42.1875 C 17.5 42.710938 17.085938 43.125 16.5625 43.125 C 16.039063 43.125 15.625 42.710938 15.625 42.1875 L 15.625 31.875 L 11.875 31.875 L 11.875 42.1875 C 11.875 42.710938 11.460938 43.125 10.9375 43.125 C 10.414063 43.125 10 42.710938 10 42.1875 L 10 29.6875 L 8.75 29.6875 C 8.75 30.210938 8.335938 30.625 7.8125 30.625 C 7.289063 30.625 6.875 30.210938 6.875 29.6875 L 6.875 19.375 C 6.875 17.988281 7.988281 16.875 9.375 16.875 Z M 40.625 16.875 C 40.28125 16.875 40 17.15625 40 17.5 C 40 17.84375 40.28125 18.125 40.625 18.125 C 40.96875 18.125 41.25 17.84375 41.25 17.5 C 41.25 17.15625 40.96875 16.875 40.625 16.875 Z M 40.625 19.375 C 40.28125 19.375 40 19.65625 40 20 C 40 20.34375 40.28125 20.625 40.625 20.625 C 40.96875 20.625 41.25 20.34375 41.25 20 C 41.25 19.65625 40.96875 19.375 40.625 19.375 Z M 9.375 20 C 9.03125 20 8.75 20.28125 8.75 20.625 C 8.75 20.96875 9.03125 21.25 9.375 21.25 C 9.71875 21.25 10 20.96875 10 20.625 C 10 20.28125 9.71875 20 9.375 20 Z M 40.625 21.875 C 40.28125 21.875 40 22.15625 40 22.5 C 40 22.84375 40.28125 23.125 40.625 23.125 C 40.96875 23.125 41.25 22.84375 41.25 22.5 C 41.25 22.15625 40.96875 21.875 40.625 21.875 Z M 9.375 22.5 C 9.03125 22.5 8.75 22.78125 8.75 23.125 C 8.75 23.46875 9.03125 23.75 9.375 23.75 C 9.71875 23.75 10 23.46875 10 23.125 C 10 22.78125 9.71875 22.5 9.375 22.5 Z M 40.625 24.375 C 40.28125 24.375 40 24.65625 40 25 C 40 25.34375 40.28125 25.625 40.625 25.625 C 40.96875 25.625 41.25 25.34375 41.25 25 C 41.25 24.65625 40.96875 24.375 40.625 24.375 Z M 9.375 25 C 9.03125 25 8.75 25.28125 8.75 25.625 C 8.75 25.96875 9.03125 26.25 9.375 26.25 C 9.71875 26.25 10 25.96875 10 25.625 C 10 25.28125 9.71875 25 9.375 25 Z M 40.625 26.875 C 40.28125 26.875 40 27.15625 40 27.5 C 40 27.84375 40.28125 28.125 40.625 28.125 C 40.96875 28.125 41.25 27.84375 41.25 27.5 C 41.25 27.15625 40.96875 26.875 40.625 26.875 Z M 9.375 27.5 C 9.03125 27.5 8.75 27.78125 8.75 28.125 C 8.75 28.46875 9.03125 28.75 9.375 28.75 C 9.71875 28.75 10 28.46875 10 28.125 C 10 27.78125 9.71875 27.5 9.375 27.5 Z M 40.625 29.375 C 40.28125 29.375 40 29.65625 40 30 C 40 30.34375 40.28125 30.625 40.625 30.625 C 40.96875 30.625 41.25 30.34375 41.25 30 C 41.25 29.65625 40.96875 29.375 40.625 29.375 Z "/>
</g>
</svg>
