<?xml version="1.0" encoding="UTF-8"?>
<svg xmlns="http://www.w3.org/2000/svg" xmlns:xlink="http://www.w3.org/1999/xlink" width="50pt" height="50pt" viewBox="0 0 50 50" version="1.1">
<g id="surface1">
<path style=" stroke:none;fill-rule:nonzero;fill:#05C7CC;fill-opacity:1;" d="M 25 5.550781 L 24.71875 5.691406 C 24.71875 5.691406 17.34375 9.375 7.5 9.375 L 6.875 9.375 L 6.875 10 C 6.875 24.5 11.308594 33.269531 15.78125 38.378906 C 20.253906 43.492188 24.808594 44.96875 24.808594 44.96875 L 25 45.03125 L 25.191406 44.96875 C 25.191406 44.96875 29.746094 43.492188 34.21875 38.378906 C 38.691406 33.269531 43.125 24.5 43.125 10 L 43.125 9.375 L 42.5 9.375 C 32.65625 9.375 25.28125 5.691406 25.28125 5.691406 Z M 25 6.933594 C 25.71875 7.28125 32.550781 10.445313 41.851563 10.59375 C 41.726563 24.464844 37.496094 32.742188 33.28125 37.558594 C 29.160156 42.269531 25.289063 43.589844 25 43.6875 C 24.710938 43.589844 20.839844 42.269531 16.71875 37.558594 C 12.503906 32.742188 8.273438 24.464844 8.148438 10.59375 C 17.449219 10.445313 24.28125 7.28125 25 6.933594 Z M 23.828125 10.160156 L 23.609375 10.199219 L 23.550781 10.222656 L 23.171875 10.632813 L 23.273438 11.183594 L 23.777344 11.433594 L 23.992188 11.390625 L 24.050781 11.371094 L 24.429688 10.957031 L 24.328125 10.40625 Z M 26.375 10.203125 L 25.820313 10.269531 L 25.539063 10.757813 L 25.761719 11.269531 L 25.953125 11.378906 L 26.011719 11.402344 L 26.566406 11.335938 L 26.847656 10.851563 L 26.625 10.335938 L 26.433594 10.226563 Z M 21.445313 10.988281 L 21.226563 11.011719 L 21.167969 11.03125 L 20.761719 11.414063 L 20.828125 11.972656 L 21.3125 12.253906 L 21.53125 12.226563 L 21.589844 12.210938 L 21.996094 11.824219 L 21.929688 11.265625 Z M 28.765625 11.011719 L 28.214844 11.113281 L 27.964844 11.613281 L 28.214844 12.113281 L 28.410156 12.210938 L 28.472656 12.230469 L 29.023438 12.128906 L 29.273438 11.628906 L 29.023438 11.128906 L 28.824219 11.03125 Z M 19.023438 11.683594 L 18.800781 11.691406 L 18.742188 11.707031 L 18.3125 12.066406 L 18.339844 12.625 L 18.808594 12.9375 L 19.027344 12.925781 L 19.089844 12.910156 L 19.519531 12.550781 L 19.488281 11.992188 Z M 31.210938 11.691406 L 30.664063 11.808594 L 30.429688 12.320313 L 30.699219 12.808594 L 30.898438 12.902344 L 30.960938 12.917969 L 31.507813 12.800781 L 31.738281 12.289063 L 31.472656 11.800781 L 31.269531 11.707031 Z M 16.542969 12.238281 L 16.324219 12.242188 L 16.261719 12.253906 L 15.820313 12.597656 L 15.832031 13.15625 L 16.285156 13.484375 L 16.507813 13.480469 L 16.570313 13.46875 L 17.011719 13.125 L 17 12.5625 Z M 33.660156 12.242188 L 33.125 12.402344 L 32.929688 12.925781 L 33.234375 13.398438 L 33.441406 13.472656 L 33.503906 13.484375 L 34.039063 13.328125 L 34.234375 12.800781 L 33.929688 12.332031 L 33.722656 12.253906 Z M 36.160156 12.660156 L 35.628906 12.839844 L 35.457031 13.375 L 35.78125 13.832031 L 35.992188 13.898438 L 36.054688 13.90625 L 36.582031 13.726563 L 36.753906 13.191406 L 36.429688 12.734375 L 36.222656 12.667969 Z M 13.824219 12.671875 L 13.761719 12.679688 L 13.308594 13.007813 L 13.296875 13.566406 L 13.742188 13.910156 L 13.960938 13.914063 L 14.023438 13.90625 L 14.476563 13.578125 L 14.488281 13.019531 L 14.046875 12.675781 Z M 11.386719 12.957031 C 11.375 12.957031 11.359375 12.957031 11.34375 12.957031 C 11.308594 12.957031 11.296875 12.960938 11.3125 12.960938 L 10.726563 12.996094 L 10.726563 13.609375 C 10.722656 13.867188 10.878906 14.101563 11.117188 14.199219 C 11.359375 14.296875 11.632813 14.234375 11.808594 14.042969 C 12 13.871094 12.066406 13.59375 11.972656 13.355469 C 11.878906 13.113281 11.644531 12.953125 11.386719 12.957031 Z M 38.59375 12.957031 C 38.335938 12.960938 38.105469 13.128906 38.019531 13.375 C 37.933594 13.621094 38.011719 13.890625 38.210938 14.058594 C 38.210938 14.058594 38.210938 14.058594 38.210938 14.0625 C 38.390625 14.238281 38.664063 14.292969 38.894531 14.191406 C 39.128906 14.09375 39.28125 13.863281 39.277344 13.609375 L 39.277344 12.996094 L 38.6875 12.960938 C 38.703125 12.960938 38.691406 12.957031 38.65625 12.957031 C 38.636719 12.957031 38.613281 12.953125 38.59375 12.957031 Z M 38.441406 15.542969 L 38 15.890625 L 37.945313 16.105469 L 37.9375 16.167969 L 38.148438 16.6875 L 38.6875 16.832031 L 39.128906 16.484375 L 39.183594 16.273438 L 39.191406 16.207031 L 38.980469 15.6875 Z M 11.21875 15.59375 L 10.828125 15.996094 L 10.800781 16.210938 L 10.800781 16.257813 L 10.804688 16.296875 L 11.089844 16.777344 L 11.648438 16.835938 L 12.027344 16.421875 L 12.050781 16.203125 L 12.050781 16.183594 L 12.046875 16.164063 L 12.046875 16.160156 L 11.777344 15.671875 Z M 38.214844 18.136719 L 37.753906 18.453125 L 37.683594 18.664063 L 37.671875 18.726563 L 37.847656 19.257813 L 38.378906 19.4375 L 38.839844 19.121094 L 38.910156 18.914063 L 38.917969 18.847656 L 38.746094 18.316406 Z M 11.402344 18.234375 L 11.046875 18.667969 L 11.039063 18.886719 L 11.046875 18.949219 L 11.359375 19.414063 L 11.921875 19.4375 L 12.273438 19.003906 L 12.285156 18.785156 L 12.277344 18.71875 L 11.960938 18.257813 Z M 25 18.75 C 23.28125 18.75 21.875 20.15625 21.875 21.875 C 21.875 22.910156 22.449219 23.753906 23.230469 24.320313 L 22.386719 29.375 L 27.613281 29.375 L 26.769531 24.320313 C 27.550781 23.753906 28.125 22.910156 28.125 21.875 C 28.125 20.15625 26.71875 18.75 25 18.75 Z M 25 20 C 26.042969 20 26.875 20.832031 26.875 21.875 C 26.875 22.613281 26.445313 23.242188 25.824219 23.546875 L 25.410156 23.753906 L 26.136719 28.125 L 23.863281 28.125 L 24.589844 23.753906 L 24.175781 23.546875 C 23.554688 23.242188 23.125 22.613281 23.125 21.875 C 23.125 20.832031 23.957031 20 25 20 Z M 37.804688 20.703125 L 37.320313 20.992188 L 37.238281 21.195313 L 37.222656 21.257813 L 37.359375 21.800781 L 37.878906 22.015625 L 38.359375 21.730469 L 38.445313 21.523438 L 38.457031 21.460938 L 38.320313 20.917969 Z M 12.335938 20.835938 L 11.773438 20.847656 L 11.449219 21.300781 L 11.453125 21.519531 L 11.464844 21.582031 L 11.808594 22.027344 L 12.367188 22.015625 L 12.695313 21.558594 L 12.691406 21.339844 L 12.679688 21.277344 Z M 37.195313 23.234375 L 36.695313 23.488281 L 36.597656 23.683594 L 36.582031 23.746094 L 36.683594 24.296875 L 37.183594 24.546875 L 37.683594 24.292969 L 37.78125 24.09375 L 37.800781 24.03125 L 37.699219 23.484375 Z M 12.890625 23.378906 L 12.335938 23.425781 L 12.035156 23.898438 L 12.054688 24.117188 L 12.070313 24.179688 L 12.441406 24.601563 L 13 24.554688 L 13.296875 24.078125 L 13.277344 23.859375 L 13.261719 23.796875 Z M 36.410156 25.707031 L 35.890625 25.910156 L 35.773438 26.097656 L 35.75 26.15625 L 35.792969 26.714844 L 36.269531 27.011719 L 36.792969 26.808594 L 36.910156 26.621094 L 36.933594 26.5625 L 36.882813 26.003906 Z M 13.628906 25.863281 L 13.078125 25.960938 L 12.828125 26.464844 L 12.867188 26.679688 L 12.890625 26.742188 L 13.300781 27.121094 L 13.851563 27.023438 L 14.101563 26.519531 L 14.0625 26.304688 L 14.039063 26.242188 Z M 35.390625 28.105469 L 34.859375 28.28125 L 34.734375 28.464844 L 34.707031 28.523438 L 34.730469 29.082031 L 35.1875 29.398438 L 35.71875 29.222656 L 35.84375 29.039063 L 35.871094 28.980469 L 35.851563 28.421875 Z M 14.601563 28.273438 L 14.058594 28.414063 L 13.851563 28.933594 L 13.90625 29.148438 L 13.933594 29.207031 L 14.375 29.554688 L 14.914063 29.410156 L 15.125 28.890625 L 15.066406 28.675781 L 15.039063 28.621094 Z M 34.210938 30.410156 L 33.664063 30.523438 L 33.515625 30.6875 L 33.484375 30.742188 L 33.4375 31.300781 L 33.855469 31.671875 L 34.40625 31.558594 L 34.550781 31.394531 L 34.582031 31.339844 L 34.628906 30.78125 Z M 15.742188 30.589844 L 15.222656 30.800781 L 15.078125 31.339844 L 15.164063 31.546875 L 15.195313 31.597656 L 15.675781 31.886719 L 16.195313 31.679688 L 16.335938 31.136719 L 16.253906 30.933594 L 16.21875 30.878906 Z M 32.8125 32.605469 L 32.257813 32.6875 L 32.105469 32.84375 L 32.066406 32.894531 L 31.988281 33.449219 L 32.386719 33.84375 L 32.941406 33.761719 L 33.09375 33.605469 L 33.132813 33.554688 L 33.210938 33 Z M 17.15625 32.773438 L 16.652344 33.015625 L 16.542969 33.566406 L 16.636719 33.761719 L 16.675781 33.816406 L 17.171875 34.074219 L 17.675781 33.835938 L 17.785156 33.285156 L 17.691406 33.085938 L 17.652344 33.035156 Z M 31.25 34.675781 L 30.691406 34.695313 L 30.519531 34.835938 L 30.476563 34.882813 L 30.339844 35.425781 L 30.691406 35.859375 L 31.253906 35.839844 L 31.421875 35.699219 L 31.464844 35.652344 L 31.601563 35.109375 Z M 18.746094 34.808594 L 18.273438 35.109375 L 18.230469 35.667969 L 18.347656 35.851563 L 18.390625 35.902344 L 18.914063 36.101563 L 19.386719 35.804688 L 19.429688 35.246094 L 19.3125 35.058594 L 19.269531 35.011719 Z M 28.949219 36.5625 L 28.761719 36.683594 L 28.71875 36.726563 L 28.523438 37.253906 L 28.832031 37.71875 L 29.390625 37.753906 L 29.578125 37.632813 L 29.621094 37.589844 L 29.816406 37.0625 L 29.507813 36.59375 Z M 20.546875 36.667969 L 20.109375 37.015625 L 20.125 37.574219 L 20.257813 37.746094 L 20.308594 37.789063 L 20.847656 37.933594 L 21.289063 37.589844 L 21.273438 37.027344 L 21.136719 36.855469 L 21.089844 36.8125 Z M 27.027344 38.246094 L 26.832031 38.347656 L 26.78125 38.386719 L 26.539063 38.890625 L 26.800781 39.386719 L 27.351563 39.476563 L 27.546875 39.375 L 27.597656 39.335938 L 27.839844 38.828125 L 27.578125 38.332031 Z M 22.546875 38.316406 L 22.140625 38.703125 L 22.210938 39.261719 L 22.359375 39.421875 L 22.414063 39.457031 L 22.964844 39.550781 L 23.371094 39.164063 L 23.304688 38.609375 L 23.152344 38.449219 L 23.097656 38.410156 Z M 24.949219 39.652344 C 24.660156 39.660156 24.414063 39.863281 24.351563 40.144531 C 24.289063 40.425781 24.429688 40.714844 24.691406 40.839844 C 24.6875 40.839844 24.699219 40.84375 24.71875 40.855469 L 24.996094 40.992188 L 25.304688 40.839844 C 25.566406 40.710938 25.707031 40.417969 25.636719 40.128906 C 25.566406 39.84375 25.304688 39.648438 25.011719 39.65625 C 25.011719 39.65625 25.007813 39.65625 25.007813 39.65625 C 24.988281 39.652344 24.96875 39.652344 24.949219 39.652344 Z "/>
</g>
</svg>
