<?xml version="1.0" encoding="UTF-8"?>
<svg xmlns="http://www.w3.org/2000/svg" xmlns:xlink="http://www.w3.org/1999/xlink" width="50pt" height="50pt" viewBox="0 0 50 50" version="1.1">
<g id="surface1">
<path style=" stroke:none;fill-rule:nonzero;fill:#05C7CC;fill-opacity:1;" d="M 5.625 9.375 C 4.941406 9.375 4.375 9.941406 4.375 10.625 L 4.375 35.625 C 4.375 36.308594 4.941406 36.875 5.625 36.875 L 20 36.875 L 20 39.375 L 18.125 39.375 C 16.75 39.375 15.625 40.5 15.625 41.875 L 15.625 43.125 L 34.375 43.125 L 34.375 41.875 C 34.375 40.5 33.25 39.375 31.875 39.375 L 30 39.375 L 30 36.875 L 44.375 36.875 C 45.058594 36.875 45.625 36.308594 45.625 35.625 L 45.625 10.625 C 45.625 9.941406 45.058594 9.375 44.375 9.375 Z M 5.625 10.625 L 44.375 10.625 L 44.375 35.625 L 5.625 35.625 Z M 7.5 31.875 C 7.15625 31.875 6.875 32.15625 6.875 32.5 C 6.875 32.84375 7.15625 33.125 7.5 33.125 C 7.84375 33.125 8.125 32.84375 8.125 32.5 C 8.125 32.15625 7.84375 31.875 7.5 31.875 Z M 10 31.875 C 9.65625 31.875 9.375 32.15625 9.375 32.5 C 9.375 32.84375 9.65625 33.125 10 33.125 C 10.34375 33.125 10.625 32.84375 10.625 32.5 C 10.625 32.15625 10.34375 31.875 10 31.875 Z M 12.5 31.875 C 12.15625 31.875 11.875 32.15625 11.875 32.5 C 11.875 32.84375 12.15625 33.125 12.5 33.125 C 12.84375 33.125 13.125 32.84375 13.125 32.5 C 13.125 32.15625 12.84375 31.875 12.5 31.875 Z M 15 31.875 C 14.65625 31.875 14.375 32.15625 14.375 32.5 C 14.375 32.84375 14.65625 33.125 15 33.125 C 15.34375 33.125 15.625 32.84375 15.625 32.5 C 15.625 32.15625 15.34375 31.875 15 31.875 Z M 17.5 31.875 C 17.15625 31.875 16.875 32.15625 16.875 32.5 C 16.875 32.84375 17.15625 33.125 17.5 33.125 C 17.84375 33.125 18.125 32.84375 18.125 32.5 C 18.125 32.15625 17.84375 31.875 17.5 31.875 Z M 20 31.875 C 19.65625 31.875 19.375 32.15625 19.375 32.5 C 19.375 32.84375 19.65625 33.125 20 33.125 C 20.34375 33.125 20.625 32.84375 20.625 32.5 C 20.625 32.15625 20.34375 31.875 20 31.875 Z M 22.5 31.875 C 22.15625 31.875 21.875 32.15625 21.875 32.5 C 21.875 32.84375 22.15625 33.125 22.5 33.125 C 22.84375 33.125 23.125 32.84375 23.125 32.5 C 23.125 32.15625 22.84375 31.875 22.5 31.875 Z M 25 31.875 C 24.65625 31.875 24.375 32.15625 24.375 32.5 C 24.375 32.84375 24.65625 33.125 25 33.125 C 25.34375 33.125 25.625 32.84375 25.625 32.5 C 25.625 32.15625 25.34375 31.875 25 31.875 Z M 27.5 31.875 C 27.15625 31.875 26.875 32.15625 26.875 32.5 C 26.875 32.84375 27.15625 33.125 27.5 33.125 C 27.84375 33.125 28.125 32.84375 28.125 32.5 C 28.125 32.15625 27.84375 31.875 27.5 31.875 Z M 30 31.875 C 29.65625 31.875 29.375 32.15625 29.375 32.5 C 29.375 32.84375 29.65625 33.125 30 33.125 C 30.34375 33.125 30.625 32.84375 30.625 32.5 C 30.625 32.15625 30.34375 31.875 30 31.875 Z M 32.5 31.875 C 32.15625 31.875 31.875 32.15625 31.875 32.5 C 31.875 32.84375 32.15625 33.125 32.5 33.125 C 32.84375 33.125 33.125 32.84375 33.125 32.5 C 33.125 32.15625 32.84375 31.875 32.5 31.875 Z M 35 31.875 C 34.65625 31.875 34.375 32.15625 34.375 32.5 C 34.375 32.84375 34.65625 33.125 35 33.125 C 35.34375 33.125 35.625 32.84375 35.625 32.5 C 35.625 32.15625 35.34375 31.875 35 31.875 Z M 37.5 31.875 C 37.15625 31.875 36.875 32.15625 36.875 32.5 C 36.875 32.84375 37.15625 33.125 37.5 33.125 C 37.84375 33.125 38.125 32.84375 38.125 32.5 C 38.125 32.15625 37.84375 31.875 37.5 31.875 Z M 40 31.875 C 39.65625 31.875 39.375 32.15625 39.375 32.5 C 39.375 32.84375 39.65625 33.125 40 33.125 C 40.34375 33.125 40.625 32.84375 40.625 32.5 C 40.625 32.15625 40.34375 31.875 40 31.875 Z M 42.5 31.875 C 42.15625 31.875 41.875 32.15625 41.875 32.5 C 41.875 32.84375 42.15625 33.125 42.5 33.125 C 42.84375 33.125 43.125 32.84375 43.125 32.5 C 43.125 32.15625 42.84375 31.875 42.5 31.875 Z M 21.25 36.875 L 28.75 36.875 L 28.75 39.375 L 21.25 39.375 Z M 18.125 40.625 L 31.875 40.625 C 32.574219 40.625 33.125 41.175781 33.125 41.875 L 16.875 41.875 C 16.875 41.175781 17.425781 40.625 18.125 40.625 Z "/>
</g>
</svg>
